<svg xmlns="http://www.w3.org/2000/svg" viewBox="12.38 -28.30 164.20 164.20"><style>path{fill:#187C1A}@media(prefers-color-scheme:dark){path{fill:#8DC61D}}</style><path d="M100 100L168.99 88.10A3.93 3.93 0 0 0 167.22 80.45Z"/><path d="M100 100L173.42 64.60A3.93 3.93 0 0 0 169.67 57.70Z"/><path d="M100 100L171.84 36.09A3.93 3.93 0 0 0 166.38 30.44Z"/><path d="M100 100L136.04 48.71A3.93 3.93 0 0 0 129.34 44.60Z"/><path d="M100 100L123.44 30.16A3.93 3.93 0 0 0 115.87 28.07Z"/><path d="M100 100L103.93 7.59A3.93 3.93 0 0 0 96.07 7.59Z"/><path d="M100 100L85.80 34.12A3.93 3.93 0 0 0 78.24 36.22Z"/><path d="M100 100L60.09 25.95A3.93 3.93 0 0 0 53.35 29.99Z"/><path d="M100 100L48.96 46.16A3.93 3.93 0 0 0 43.56 51.85Z"/><path d="M100 100L19.28 51.71A3.93 3.93 0 0 0 15.54 58.61Z"/><path d="M100 100L33.29 80.57A3.93 3.93 0 0 0 31.52 88.22Z"/></svg>
